HIERARCHY
ROOT hip
{
	OFFSET 0.000000 0.000000 0.000000 
	CHANNELS 6 Xposition Yposition Zposition Xrotation Zrotation Yrotation
	JOINT abdomen
	{
		OFFSET 0.000000 3.402643 0.000000 
		CHANNELS 3 Xrotation Zrotation Yrotation
		JOINT chest
		{
			OFFSET 0.000000 8.438565 -0.680529 
			CHANNELS 3 Xrotation Zrotation Yrotation
			JOINT neck
			{
				OFFSET 0.000000 10.207942 -0.272212 
				CHANNELS 3 Xrotation Zrotation Yrotation
				JOINT head
				{
					OFFSET 0.000000 3.130431 0.000000 
					CHANNELS 3 Xrotation Zrotation Yrotation
					End Site
					{
						OFFSET 0.000000 3.130435 0.000000 
					}
				}
			}
			JOINT lCollar
			{
				OFFSET 3.470700 6.669187 -0.816635 
				CHANNELS 3 Yrotation Zrotation Xrotation
				JOINT lShldr
				{
					OFFSET 3.198488 0.000000 0.000000 
					CHANNELS 3 Zrotation Yrotation Xrotation
					JOINT lForeArm
					{
						OFFSET 10.139888 0.000000 0.000000 
						CHANNELS 3 Yrotation Zrotation Xrotation
						JOINT lHand
						{
							OFFSET 8.370511 0.000000 0.000000 
							CHANNELS 3 Zrotation Yrotation Xrotation
							End Site
							{
								OFFSET 4.083176 0.000000 0.000000 
							}
						}
					}
				}
			}
			JOINT rCollar
			{
				OFFSET -3.470700 6.669187 -0.816635 
				CHANNELS 3 Yrotation Zrotation Xrotation
				JOINT rShldr
				{
					OFFSET -3.198488 0.000000 0.000000 
					CHANNELS 3 Zrotation Yrotation Xrotation
					JOINT rForeArm
					{
						OFFSET -10.139888 0.000000 0.000000 
						CHANNELS 3 Yrotation Zrotation Xrotation
						JOINT rHand
						{
							OFFSET -8.370511 0.000000 0.000000 
							CHANNELS 3 Zrotation Yrotation Xrotation
							End Site
							{
								OFFSET -4.083176 0.000000 0.000000 
							}
						}
					}
				}
			}
		}
	}
	JOINT lThigh
	{
		OFFSET 5.308129 -1.633274 1.361059 
		CHANNELS 3 Xrotation Zrotation Yrotation
		JOINT lShin
		{
			OFFSET -2.041588 -20.007561 0.000000 
			CHANNELS 3 Xrotation Zrotation Yrotation
			JOINT lFoot
			{
				OFFSET 0.000000 -19.190928 -1.224953 
				CHANNELS 3 Xrotation Yrotation Zrotation
				End Site
				{
					OFFSET 0.000000 -2.449906 4.627600 
				}
			}
		}
	}
	JOINT rThigh
	{
		OFFSET -5.308129 -1.633274 1.361059 
		CHANNELS 3 Xrotation Zrotation Yrotation
		JOINT rShin
		{
			OFFSET 2.041588 -20.007561 0.000000 
			CHANNELS 3 Xrotation Zrotation Yrotation
			JOINT rFoot
			{
				OFFSET 0.000000 -19.190928 -1.224953 
				CHANNELS 3 Xrotation Yrotation Zrotation
				End Site
				{
					OFFSET 0.000000 -2.449906 4.627600 
				}
			}
		}
	}
}
MOTION
Frames: 16
Frame Time: 0.033333
1.190230 8.807322 0.086397 25.095325 -8.360997 -26.128738 9.472656 0.000000 -0.019531 16.020216 22.977085 -13.552381 -8.544920 -0.009766 -0.009767 20.563295 -4.768324 43.340893 1.992188 -2.001953 0.000341 -61.178051 -55.199825 -9.446779 -32.727997 -0.692736 8.436760 -60.342175 -50.698856 -127.470512 -2.001953 1.992188 0.000000 -36.591805 131.212814 -85.086205 55.591389 0.547548 8.627098 41.834431 -68.437286 -66.088959 -173.355850 16.405531 -26.693960 125.638191 4.762398 -3.243160 12.660465 8.911221 11.292521 -41.415081 -24.745626 6.837754 127.224365 -4.958755 3.116321 -33.456230 28.952188 42.754684 
1.190230 8.666410 0.086397 24.991425 -9.654963 -26.906656 9.472656 0.000000 -0.019531 16.020216 22.977085 -13.552381 -8.544920 -0.009766 -0.009767 20.563295 -4.768324 43.340893 1.992188 -2.001953 0.000341 -65.927940 -51.035606 -4.453483 -43.313801 -0.625908 8.519643 -53.024731 -45.071522 -134.928528 -2.001953 1.992188 0.000000 132.651474 50.173256 85.538185 67.047020 0.507329 8.741916 53.862141 -69.028450 -77.126534 -173.800980 16.170210 -26.661747 124.639999 4.703627 -3.293073 13.839841 9.029974 12.897407 -43.503948 -25.692579 7.672599 128.605682 -5.046100 3.023938 -27.401394 32.205032 41.523941 
1.190230 8.525505 0.086397 24.909931 -10.949537 -27.685001 9.472656 0.000000 -0.019531 16.020216 22.977085 -13.552381 -8.544920 -0.009766 -0.009767 20.563295 -4.768324 43.340893 1.992188 -2.001953 0.000341 -69.738647 -46.673050 -0.385719 -53.898777 -0.568292 8.612277 -47.318840 -38.931988 -140.773987 -2.001953 1.992188 0.000000 121.504776 50.372875 75.757484 78.498375 0.501922 8.865948 66.054893 -68.749451 -88.345398 -174.244644 15.936718 -26.629871 123.641899 4.662610 -3.335260 15.040259 9.169266 14.507812 -45.631126 -26.600069 8.556628 129.986694 -5.124372 2.948961 -21.018583 35.326218 39.813732 
1.190230 8.364462 0.086397 23.635574 -11.413095 -26.712654 9.472656 0.000000 -0.019531 16.020216 22.977085 -13.552381 -8.544920 -0.009766 -0.009767 20.563295 -4.768324 43.340893 1.992188 -2.001953 0.000341 -72.558655 -47.079082 3.013410 -54.679066 -0.561171 8.623303 -46.125866 -37.409264 -141.089203 -2.001953 1.992188 0.000000 115.622780 49.878845 70.556992 84.192039 0.493502 8.927611 72.092308 -69.339783 -94.613373 -172.567215 16.542728 -25.300587 122.937874 4.623648 -3.356814 15.310402 9.285364 15.192573 -43.858521 -26.890839 8.237763 129.937424 -5.104915 2.962359 -21.204792 35.074871 40.165947 
1.190230 8.203426 0.086397 22.344913 -11.846316 -25.714920 9.472656 0.000000 -0.019531 16.020216 22.977085 -13.552381 -8.544920 -0.009766 -0.009767 20.563295 -4.768324 43.340893 1.992188 -2.001953 0.000341 -75.417061 -47.369034 6.451339 -55.469345 -0.564109 8.635727 -44.964851 -35.884552 -141.369019 -2.001953 1.992188 0.000000 109.922104 49.038605 65.538033 89.883972 0.508452 8.994353 78.413078 -69.675484 -101.161804 -170.868149 17.109232 -23.958891 122.212959 4.576070 -3.419517 15.594956 9.422438 15.857526 -42.082649 -27.184258 7.899093 129.868561 -5.095054 2.975587 -21.369406 34.813332 40.524174 
1.190230 8.292898 0.086397 22.485590 -11.675340 -25.737038 9.472656 0.000000 -0.019531 16.020216 22.977085 -13.552381 -8.544920 -0.009766 -0.009767 20.563295 -4.768324 43.340893 1.992188 -2.001953 0.000341 -74.367043 -47.596893 5.334401 -56.555210 -0.554107 8.641988 -45.405060 -35.295330 -141.335678 -2.001953 1.992188 0.000000 110.394257 48.960842 66.128471 89.850388 0.505811 8.994200 75.260513 -70.080269 -98.382317 -170.645050 17.236492 -24.011805 121.919083 4.566306 -3.439845 15.521880 9.380494 15.659594 -41.772373 -26.442991 7.509615 129.477768 -5.092856 2.966133 -24.674063 33.586452 41.258930 
1.190230 8.382367 0.086397 22.621796 -11.495653 -25.759422 9.472656 0.000000 -0.019531 16.020216 22.977085 -13.552381 -8.544920 -0.009766 -0.009767 20.563295 -4.768324 43.340893 1.992188 -2.001953 0.000341 -73.310760 -47.799595 4.217183 -57.642010 -0.545342 8.642994 -45.835339 -34.714230 -141.315155 -2.001953 1.992188 0.000000 110.869301 48.882072 66.709709 89.818527 0.503321 8.984101 71.982513 -70.430099 -95.490044 -170.410889 17.361534 -24.045343 121.596573 4.546724 -3.447535 15.481295 9.357409 15.422803 -41.471161 -25.691813 7.173448 129.086441 -5.056118 2.978839 -27.904289 32.326443 41.886806 
1.190230 8.460649 0.086397 22.847301 -11.225369 -25.803032 9.472656 0.000000 -0.019531 16.020216 22.977085 -13.552381 -8.544920 -0.009766 -0.009767 20.563295 -4.768324 43.340893 1.992188 -2.001953 0.000341 -72.290100 -47.460087 3.101555 -59.489574 -0.543106 8.665959 -46.088356 -34.077297 -141.535889 -2.001953 1.992188 0.000000 111.323540 48.636959 67.452438 90.120613 0.507531 8.992214 69.313095 -71.012276 -93.219170 -170.405533 17.391714 -24.201242 121.596573 4.546728 -3.447526 15.315456 9.323696 15.081351 -41.308250 -25.243948 6.907222 128.733383 -5.036447 3.010911 -29.878332 31.393948 42.133987 
1.190230 8.538931 0.086397 23.066172 -10.947428 -25.835861 9.472656 0.000000 -0.019531 16.020216 22.977085 -13.552381 -8.544920 -0.009766 -0.009767 20.563295 -4.768324 43.340893 1.992188 -2.001953 0.000341 -71.296669 -47.101864 2.016851 -61.345631 -0.541729 8.686257 -46.352051 -33.437527 -141.753754 -2.001953 1.992188 0.000000 111.769775 48.387016 68.197731 90.425194 0.502213 8.999955 66.480202 -71.565544 -90.790916 -170.400208 17.421881 -24.357111 121.586639 4.551881 -3.448688 15.186381 9.287036 14.714218 -41.146797 -24.772964 6.658438 128.390152 -5.016795 3.041888 -31.843903 30.465683 42.366684 
1.190230 8.581428 0.086397 23.346994 -10.588870 -25.883099 9.472656 0.000000 -0.019531 16.020216 22.977085 -13.552381 -8.544920 -0.009766 -0.009767 20.563295 -4.768324 43.340893 1.992188 -2.001953 0.000341 -70.062431 -47.831329 0.398353 -57.998478 -0.544224 8.646320 -47.701218 -35.947208 -140.492462 -2.001953 1.992188 0.000000 115.803551 48.957645 71.710327 85.935867 0.501944 8.955195 63.039257 -71.479042 -87.358810 -170.755356 17.322994 -24.649546 122.007492 4.566304 -3.428970 14.893699 9.236295 14.254829 -41.076992 -24.782103 6.601816 128.105835 -4.999355 3.066158 -32.011559 30.240925 42.355892 
1.190230 8.623920 0.086397 23.627222 -10.230670 -25.931387 9.472656 0.000000 -0.019531 16.020216 22.977085 -13.552381 -8.544920 -0.009766 -0.009767 20.563295 -4.768324 43.340893 1.992188 -2.001953 0.000341 -68.758560 -48.542084 -1.289806 -54.646450 -0.561934 8.612533 -49.161507 -38.433842 -139.119217 -2.001953 1.992188 0.000000 119.932793 49.376263 75.324486 81.450935 0.495384 8.903060 59.644253 -71.327179 -83.958458 -171.095901 17.205521 -24.936672 122.428848 4.584413 -3.393461 14.578651 9.213679 13.785139 -40.999004 -24.782103 6.530450 127.830612 -4.988035 3.107925 -32.183071 29.996767 42.336918 
1.190230 8.661946 0.086397 23.923120 -9.846494 -25.977373 9.472656 0.000000 -0.019531 16.020216 22.977085 -13.552381 -8.544920 -0.009766 -0.009767 20.563295 -4.768324 43.340893 1.992188 -2.001953 0.000341 -67.532150 -49.344273 -2.739644 -51.274948 -0.574499 8.580235 -50.673923 -40.770584 -137.643860 -2.001953 1.992188 0.000000 124.096863 49.588406 78.905838 76.984787 0.501628 8.855657 56.356323 -71.107689 -80.673225 -171.568619 17.059858 -25.305668 123.044586 4.605562 -3.387411 14.248668 9.156350 13.295470 -41.055573 -24.771387 6.566277 127.694359 -4.978405 3.093246 -32.448414 29.807301 42.429375 
1.190230 8.699975 0.086397 24.221106 -9.472260 -26.016649 9.472656 0.000000 -0.019531 16.020216 22.977085 -13.552381 -8.544920 -0.009766 -0.009767 20.563295 -4.768324 43.340893 1.992188 -2.001953 0.000341 -66.242050 -50.132706 -4.253859 -47.907227 -0.601383 8.552878 -52.318558 -43.076023 -136.034576 -2.001953 1.992188 0.000000 128.295181 49.636562 82.512573 72.518890 0.508332 8.809900 53.139309 -70.837624 -77.472290 -172.023331 16.902716 -25.655615 123.640671 4.644661 -3.376606 13.910862 9.100499 12.787548 -41.114750 -24.761995 6.631179 127.556786 -4.941291 3.122222 -32.689892 29.579025 42.495884 
1.190230 8.753652 0.086397 24.660938 -8.920664 -26.072113 9.472656 0.000000 -0.019531 16.020216 22.977085 -13.552381 -8.544920 -0.009766 -0.009767 20.563295 -4.768324 43.340893 1.992188 -2.001953 0.000341 -63.880096 -52.697521 -6.676271 -40.319118 -0.645350 8.491443 -55.980587 -46.992035 -132.100204 -2.001953 1.992188 0.000000 -44.084618 130.523224 -91.215103 64.056602 0.517990 8.717326 47.150631 -69.739311 -71.448746 -172.701569 16.649670 -26.161919 124.649658 4.721337 -3.288767 13.277287 8.982936 12.047630 -41.264278 -24.763287 6.723113 127.391113 -4.958877 3.102148 -33.078041 29.282417 42.632046 
1.190230 8.807322 0.086397 25.095325 -8.360997 -26.128738 9.472656 0.000000 -0.019531 16.020216 22.977085 -13.552381 -8.544920 -0.009766 -0.009767 20.563295 -4.768324 43.340893 1.992188 -2.001953 0.000341 -61.178051 -55.199825 -9.446779 -32.727997 -0.692736 8.436760 -60.342175 -50.698856 -127.470512 -2.001953 1.992188 0.000000 -36.591805 131.212814 -85.086205 55.591389 0.547548 8.627098 41.834431 -68.437286 -66.088959 -173.355850 16.405531 -26.693960 125.638191 4.762398 -3.243160 12.660465 8.911221 11.292521 -41.415081 -24.745626 6.837754 127.224365 -4.958755 3.116321 -33.456230 28.952188 42.754684 
1.190230 8.807322 0.086397 25.095325 -8.360997 -26.128738 9.472656 0.000000 -0.019531 16.020216 22.977085 -13.552381 -8.544920 -0.009766 -0.009767 20.563295 -4.768324 43.340893 1.992188 -2.001953 0.000341 -61.178051 -55.199825 -9.446779 -32.727997 -0.692736 8.436760 -60.342175 -50.698856 -127.470512 -2.001953 1.992188 0.000000 -36.591805 131.212814 -85.086205 55.591389 0.547548 8.627098 41.834431 -68.437286 -66.088959 -173.355850 16.405531 -26.693960 125.638191 4.762398 -3.243160 12.660465 8.911221 11.292521 -41.415081 -24.745626 6.837754 127.224365 -4.958755 3.116321 -33.456230 28.952188 42.754684 
